<svg width="2100" height="975" viewBox="0 0 2100 975" fill="none" xmlns="http://www.w3.org/2000/svg">
<path d="M1661.9 795.12H1619.66C1617.17 795.12 1615.15 793.1 1615.15 790.61V664.77C1615.15 627.37 1608.73 600.05 1595.9 582.82C1583.43 565.59 1564 556.97 1537.6 556.97C1511.2 556.97 1491.77 565.4 1478.2 582.27C1465 599.14 1458.4 626.64 1458.4 664.77V790.61C1458.4 793.1 1456.38 795.12 1453.89 795.12H1417.26C1414.77 795.12 1412.75 793.1 1412.75 790.61V540.03C1412.75 537.54 1414.77 535.52 1417.26 535.52H1450.49C1452.8 535.52 1454.73 537.26 1454.97 539.56L1458.4 572.37C1477.1 545.97 1507.35 532.77 1549.15 532.77C1568.22 532.77 1586.37 536.44 1603.6 543.77C1620.83 550.74 1634.77 563.75 1645.4 582.82C1656.4 601.89 1661.9 629.2 1661.9 664.77V795.12Z" fill="#025DA7"/>
<path d="M800.41 801.02H397.31L710.4 393.63H560.06C543.43 393.63 531.33 395.98 523.76 400.69C516.29 404.97 511.97 407.75 510.83 409.03C510.83 409.03 505.84 374 479.06 349.08C452.27 324.16 416.71 319.85 416.71 319.85H909.26L596.17 727.24H746.51C754.39 727.24 760.96 726.17 766.23 724.03C771.5 721.89 775.72 719.54 778.89 716.97C782.59 713.98 785.16 711.2 786.57 708.63C787.99 706.06 788.8 704.35 788.98 703.5L800.42 801.02H800.41Z" fill="#01A255"/>
<path d="M342.87 319.85C373.03 319.85 398.56 324.13 419.47 332.68C440.38 341.23 456.67 353 468.35 367.97C480.03 382.94 486.92 400.9 489.02 421.86C491.12 442.82 488.44 465.7 480.98 490.51C477.03 502.91 470.45 516.39 461.24 530.93C452.03 545.47 439.33 558.94 423.15 571.35C407.06 583.33 386.78 593.38 362.33 601.5C338.31 609.63 309.7 613.69 276.48 613.69H191.25L157.43 772.8C155.34 782.64 156.46 789.7 160.8 793.97C165.14 798.25 169.44 800.6 173.72 801.03H0C3.59 800.6 8.46 798.25 14.61 793.97C21.2 789.7 25.5 782.85 27.5 773.44L118.05 347.44C119.96 338.46 118.53 331.83 113.75 327.55C109.41 323.27 105.59 320.71 102.27 319.85H342.87ZM274.46 539.9C280.14 539.9 287.23 539.47 295.71 538.62C304.29 537.34 313.01 534.34 321.88 529.64C330.75 524.94 338.8 517.88 346.05 508.47C353.82 498.63 359.62 484.73 363.44 466.77C366.62 451.8 366.59 439.61 363.35 430.2C360.11 420.79 354.88 413.52 347.66 408.39C340.97 402.83 333.01 399.19 323.75 397.48C314.59 395.34 305.64 394.27 296.9 394.27H237.9L206.94 539.9H274.47H274.46Z" fill="#01A255"/>
<path d="M806.49 311.72H829.91C803.32 209.89 728.99 140.97 619.74 131.06C718.46 146.34 784.53 214.35 806.49 311.72Z" fill="#03ADAE"/>
<path d="M799.81 482.42C795.49 498.9 790.19 515.68 783.85 532.71C700.69 755.97 472.82 936.96 274.85 936.96C76.8799 936.96 -9.31009 768.82 58.6299 556.73C-25.4401 787.91 71.8299 974.59 277.27 974.59C482.71 974.59 721.93 785.61 808.72 552.5C823.95 511.61 833.51 472.09 837.82 434.7L799.81 482.43V482.42Z" fill="#03ADAE"/>
<path d="M775.13 504.82C771.37 518.41 766.9 532.21 761.7 546.18C743.11 596.03 716.92 643.64 685.23 687.28C721.76 639.14 751.83 586 772.63 530.17C776.97 518.51 780.82 506.96 784.19 495.55L775.13 504.81V504.82Z" fill="#025DA7"/>
<path d="M570.38 135.82C449.34 135.82 316.83 205.26 214.89 310.74L244 311.33C339.26 221.76 457.27 164.15 565.77 164.15C674.27 164.15 745.19 226.26 775.4 311.72H796.6C771.37 209.94 688.87 135.82 570.39 135.82H570.38Z" fill="#025DA7"/>
<path d="M79.2499 805.49H71.6799C91.6399 845.59 122.26 877.31 162.05 897.73C125.17 876.61 97.1099 844.94 79.2499 805.49Z" fill="#025DA7"/>
<path d="M960.59 785.43C971.24 791.76 985.05 794.93 1002.03 794.93C1016.35 794.93 1029.83 789.76 1042.48 779.43C1054.37 769.66 1064.72 755.56 1073.54 737.13C1074.35 735.42 1076.92 735.63 1077.45 737.45C1083.31 757.56 1091.12 772.05 1100.9 780.93C1111.89 790.26 1127.03 794.93 1146.34 794.93C1163.32 794.93 1179.3 787.1 1194.28 771.43C1209.26 755.76 1221.24 732.43 1230.23 701.43C1239.55 670.43 1244.21 631.93 1244.21 585.93V534.93C1244.21 533.83 1243.31 532.93 1242.21 532.93H1207.96C1206.85 532.93 1205.95 533.84 1205.96 534.95C1206.05 544.1 1206.38 581.89 1205.94 597.22C1205.44 614.72 1205.62 624.51 1204.94 640.22C1204.06 660.51 1201.93 680.26 1197.27 698.93C1192.94 717.6 1186.79 732.93 1178.8 744.93C1170.81 756.6 1161.5 762.43 1149.84 762.43C1138.18 762.43 1129.36 757.93 1123.37 748.93C1117.38 739.93 1112.88 725.26 1109.89 704.93L1099.42 635.08C1099.41 634.98 1099.4 634.88 1099.4 634.78C1099.39 626.62 1098.61 618.67 1098.94 610.72V560.72C1098.94 552.35 1098.51 543.98 1098.45 535.2C1098.44 534.1 1097.55 533.21 1096.46 533.2L1063.97 532.94C1062.86 532.94 1061.95 533.83 1061.95 534.94V640.42C1061.95 660.75 1059.62 680.25 1054.96 698.92C1050.63 717.59 1044.48 732.92 1036.49 744.92C1028.5 756.59 1018.5 762.42 1007.52 762.42C996.54 762.42 988.22 757.92 982.56 748.92C976.9 739.92 972.57 725.25 969.58 704.92L947.11 548.92C946.49 543.66 946.02 541.12 945.17 534.67C945.04 533.67 944.2 532.92 943.19 532.92H894.94C898.27 532.92 904 582.59 904.66 586.92L920.14 692.92C923.8 718.25 928.8 738.42 935.12 753.42C941.45 768.09 949.93 778.75 960.59 785.42V785.43Z" fill="#025DA7"/>
<path d="M1344.23 795.12H1307.78C1305.24 795.12 1303.18 793.06 1303.18 790.52V540.12C1303.18 537.58 1305.24 535.52 1307.78 535.52H1344.23C1346.77 535.52 1348.83 537.58 1348.83 540.12V790.52C1348.83 793.06 1346.77 795.12 1344.23 795.12Z" fill="#025DA7"/>
<path d="M1359.44 445.22C1359.44 463.17 1344.89 477.72 1326.94 477.72C1308.99 477.72 1294.44 463.17 1294.44 445.22C1294.44 427.27 1308.99 412.72 1326.94 412.72C1344.89 412.72 1359.44 427.27 1359.44 445.22Z" fill="#025DA7"/>
<path d="M2097.92 386.31C2097.52 385.53 2097.13 384.76 2096.75 384C2094.8 380.13 2092.82 376.27 2090.82 372.44C2090.42 371.67 2090.04 370.93 2089.65 370.19C2079.77 351.31 2069.8 332.53 2059.09 314.13C2058.08 312.39 2057.07 310.66 2056.06 308.92C2047.69 294.45 2039.36 279.97 2029.6 266.42C2029.15 265.79 2028.71 265.19 2028.27 264.58C2022.49 256.51 2016.34 249.52 2013.67 246.83C2005.03 238.13 1990.92 233.75 1984.1 231.96C1983.95 235.36 1983.3 240.76 1980.67 246.77C1977.8 253.34 1973.84 257.72 1971.3 260.15C1971.8 260.63 1972.55 261.37 1973.43 262.31C1974.62 263.59 1975.22 264.38 1977.02 266.47C1977.88 267.47 1978.74 268.48 1979.61 269.48C1980.95 271.04 1982.31 272.6 1983.64 274.15C1986.72 277.72 1989.81 281.29 1992.88 284.87C2001.09 294.42 2009.31 303.94 2017.56 313.45C2025.84 322.98 2034.09 332.55 2042.33 342.12C2044.76 344.95 2047.21 347.78 2049.64 350.6C2050.05 351.08 2050.45 351.54 2050.85 352C2052.46 353.87 2054.08 355.75 2055.69 357.63C2059.79 362.39 2063.9 367.16 2068 371.93C2069.76 373.98 2071.52 376.04 2073.28 378.11L2075.83 381.09C2079.42 385.29 2083.03 389.47 2086.73 393.58C2087.36 394.25 2087.98 394.9 2088.58 395.55C2089.65 396.69 2090.69 397.65 2091.73 398.45C2095.19 398.43 2096.84 398.12 2099.42 395.74C2100.5 392.22 2099.43 389.55 2097.92 386.3V386.31Z" fill="#025DA7"/>
<path d="M1718.04 287.71C1718.92 287.75 1719.77 287.8 1720.62 287.85C1724.95 288.1 1729.27 288.31 1733.6 288.49C1734.46 288.53 1735.3 288.57 1736.13 288.6C1757.42 289.48 1778.67 290.24 1799.96 290.16C1801.97 290.16 1803.97 290.14 1805.98 290.14C1822.69 290.12 1839.41 290.15 1856.01 288.47C1856.78 288.39 1857.52 288.31 1858.27 288.24C1868.15 287.26 1877.27 285.44 1880.94 284.47C1892.79 281.34 1903.64 271.31 1908.6 266.3C1905.73 264.47 1901.38 261.21 1897.49 255.92C1893.24 250.15 1891.42 244.53 1890.59 241.11C1889.93 241.3 1888.91 241.59 1887.66 241.88C1885.96 242.28 1884.97 242.39 1882.26 242.91C1880.96 243.16 1879.66 243.4 1878.36 243.64C1876.34 244.02 1874.31 244.42 1872.3 244.8C1867.67 245.68 1863.03 246.57 1858.4 247.44C1846.03 249.77 1833.67 252.13 1821.31 254.53C1808.92 256.94 1796.51 259.3 1784.1 261.65C1780.43 262.34 1776.76 263.04 1773.09 263.74C1772.47 263.85 1771.87 263.97 1771.27 264.08C1768.84 264.54 1766.41 265.01 1763.98 265.46C1757.8 266.63 1751.62 267.81 1745.44 268.97C1742.78 269.46 1740.12 269.96 1737.45 270.45L1733.59 271.17C1728.15 272.18 1722.73 273.22 1717.32 274.37C1716.43 274.58 1715.55 274.79 1714.69 274.98C1713.17 275.34 1711.82 275.76 1710.61 276.26C1708.9 279.27 1708.34 280.85 1709.11 284.27C1711.62 286.97 1714.46 287.38 1718.04 287.69V287.71Z" fill="#025DA7"/>
<path d="M1993.37 8.03C1992.89 8.77 1992.42 9.49 1991.96 10.2C1989.58 13.82 1987.23 17.46 1984.91 21.12C1984.44 21.85 1983.99 22.55 1983.55 23.26C1972.15 41.26 1960.86 59.28 1950.28 77.75C1949.28 79.5 1948.29 81.23 1947.28 82.97C1938.94 97.45 1930.56 111.91 1923.71 127.14C1923.39 127.85 1923.09 128.53 1922.78 129.21C1918.69 138.25 1915.71 147.07 1914.71 150.73C1911.5 162.56 1914.75 176.97 1916.62 183.77C1919.64 182.2 1924.64 180.06 1931.16 179.33C1938.28 178.53 1944.06 179.76 1947.44 180.76C1947.6 180.09 1947.87 179.07 1948.24 177.84C1948.75 176.17 1949.14 175.26 1950.05 172.65C1950.48 171.4 1950.93 170.15 1951.36 168.9C1952.04 166.96 1952.71 165.01 1953.39 163.07C1954.94 158.61 1956.49 154.16 1958.05 149.71C1962.22 137.83 1966.35 125.95 1970.46 114.04C1974.57 102.1 1978.73 90.18 1982.9 78.25C1984.14 74.73 1985.36 71.2 1986.59 67.67C1986.8 67.08 1987 66.49 1987.2 65.92C1988.01 63.59 1988.83 61.25 1989.65 58.92C1991.72 52.99 1993.8 47.04 1995.88 41.11C1996.78 38.56 1997.68 36 1998.59 33.45L1999.89 29.75C2001.74 24.54 2003.54 19.32 2005.25 14.06C2005.52 13.18 2005.77 12.32 2006.03 11.47C2006.48 9.98 2006.79 8.59 2006.96 7.3C2005.21 4.31 2004.12 3.04 2000.77 2C1997.18 2.82 1995.4 5.08 1993.34 8.02L1993.37 8.03Z" fill="#025DA7"/>
<path d="M1971.32 230.25C1969.72 249.51 1952.8 263.83 1933.54 262.23C1914.28 260.63 1899.96 243.71 1901.56 224.45C1903.16 205.19 1920.08 190.87 1939.34 192.47C1958.6 194.07 1972.92 210.99 1971.32 230.25Z" fill="#025DA7"/>
<path d="M1936.44 275.04C1928.86 275.04 1921.67 273.38 1915.2 270.43V572.37C1896.5 545.97 1866.25 532.77 1824.45 532.77C1805.38 532.77 1787.23 536.44 1770 543.77C1752.77 550.74 1738.65 563.75 1727.65 582.82C1717.02 601.89 1711.7 628.84 1711.7 664.77C1711.7 700.7 1717.02 728.2 1727.65 747.27C1738.65 766.34 1752.77 779.54 1770 786.87C1787.23 793.84 1805.38 797.32 1824.45 797.32C1866.25 797.32 1896.5 783.94 1915.2 757.17L1919.13 791.09C1919.4 793.39 1921.34 795.12 1923.65 795.12H1956.3C1958.81 795.12 1960.85 793.08 1960.85 790.57V268.87C1953.59 272.81 1945.28 275.04 1936.44 275.04ZM1894.85 747.82C1881.65 764.69 1862.03 773.12 1836 773.12C1809.97 773.12 1789.98 764.5 1777.15 747.27C1764.68 730.04 1758.45 702.54 1758.45 664.77V659.27C1758.45 591.07 1784.3 556.97 1836 556.97C1862.03 556.97 1881.65 565.4 1894.85 582.27C1908.42 599.14 1915.2 626.27 1915.2 664.77C1915.2 703.27 1908.42 730.95 1894.85 747.82Z" fill="#025DA7"/>
</svg>
